<svg width="30" height="30" viewBox="0 0 30 30" fill="none" xmlns="http://www.w3.org/2000/svg">
<path d="M10 11H18V9.61557C18 9.26484 17.6609 9 17.2749 9C17.1998 9 17.1229 9.01003 17.0463 9.03143L10 11Z" fill="black"/>
<path d="M19.3043 12H8.69565C8.31144 12 8 12.3213 8 12.7177V22.2391V26.2823C8 26.6787 8.31144 27 8.69565 27H19.3043C19.6886 27 20 26.6787 20 26.2823V12.7177C20 12.3214 19.6885 12 19.3043 12ZM10.5217 18.471H10.6729C10.8978 16.9854 12.0383 15.8087 13.4783 15.5766V15.3069C13.4783 15.0097 13.7119 14.7686 14 14.7686C14.2881 14.7686 14.5217 15.0097 14.5217 15.3069V15.5766C15.9617 15.8087 17.1022 16.9854 17.3271 18.471H17.4783C17.7664 18.471 18 18.712 18 19.0092C18 19.3065 17.7664 19.5475 17.4783 19.5475H10.5217C10.2336 19.5475 10 19.3065 10 19.0092C10 18.712 10.2336 18.471 10.5217 18.471ZM13.7502 21.54C13.7502 21.8373 13.5166 22.0783 13.2284 22.0783H10.7241C10.4359 22.0783 10.2023 21.8373 10.2023 21.54C10.2023 21.2427 10.4359 21.0017 10.7241 21.0017H13.2284C13.5166 21.0017 13.7502 21.2427 13.7502 21.54ZM17.3478 24.2314H10.6522C10.364 24.2314 10.1304 23.9904 10.1304 23.6931C10.1304 23.3958 10.364 23.1548 10.6522 23.1548H17.3478C17.636 23.1548 17.8696 23.3958 17.8696 23.6931C17.8696 23.9904 17.636 24.2314 17.3478 24.2314Z" fill="black"/>
<path d="M16 19C15.7903 17.8558 14.9732 17 14 17C13.0268 17 12.2097 17.8558 12 19H16Z" fill="black"/>
</svg>
