<svg width="28" height="28" viewBox="0 0 28 28" fill="none" xmlns="http://www.w3.org/2000/svg">
<g clip-path="url(#clip0_59_21)">
<path d="M14 0.000746728C6.26882 0.000746728 0 6.26834 0 14.0001C0 21.7319 6.26821 27.9995 14 27.9995C21.7324 27.9995 28 21.7319 28 14.0001C28 6.26834 21.7324 0.000746728 14 0.000746728ZM14 4.18673C16.5582 4.18673 18.6312 6.26034 18.6312 8.81732C18.6312 11.3749 16.5582 13.4479 14 13.4479C11.443 13.4479 9.37003 11.3749 9.37003 8.81732C9.37003 6.26034 11.443 4.18673 14 4.18673ZM13.9969 24.3393C11.4455 24.3393 9.10867 23.4101 7.30625 21.8721C6.86717 21.4976 6.61381 20.9485 6.61381 20.3723C6.61381 17.779 8.71264 15.7035 11.3065 15.7035H16.6947C19.2892 15.7035 21.38 17.779 21.38 20.3723C21.38 20.9491 21.1279 21.497 20.6882 21.8715C18.8864 23.4101 16.549 24.3393 13.9969 24.3393Z" fill="white"/>
</g>
<defs>
<clipPath id="clip0_59_21">
<rect width="28" height="28" fill="white"/>
</clipPath>
</defs>
</svg>
